<svg width="45" height="45" viewBox="0 0 45 45" fill="none" xmlns="http://www.w3.org/2000/svg">
<circle cx="22.5" cy="22.5" r="22.5" fill="#F9BE37"/>
<path d="M29.4666 16.3999L29.9466 17.1466C26.6399 19.3155 24.9866 21.4843 24.9866 23.6532C24.9866 24.7555 25.4666 25.3955 26.4266 25.5732L28.6666 23.4932C29.3777 23.7421 30.0177 24.2043 30.5866 24.8799C31.191 25.5199 31.4932 26.3555 31.4932 27.3866C31.4932 28.4177 31.0843 29.3066 30.2666 30.0532C29.4488 30.7643 28.3643 31.1199 27.0132 31.1199C25.6977 31.1199 24.5955 30.6755 23.7066 29.7866C22.8532 28.8621 22.4266 27.5999 22.4266 25.9999C22.4266 22.5155 24.7732 19.3155 29.4666 16.3999ZM19.4399 16.3999L19.9199 17.1466C16.6132 19.3155 14.9599 21.4843 14.9599 23.6532C14.9599 24.7555 15.4399 25.3955 16.3999 25.5732L18.6399 23.4932C19.351 23.7421 19.991 24.2043 20.5599 24.8799C21.1643 25.5199 21.4666 26.3555 21.4666 27.3866C21.4666 28.4177 21.0577 29.3066 20.2399 30.0532C19.4221 30.7643 18.3377 31.1199 16.9866 31.1199C15.671 31.1199 14.5688 30.6755 13.6799 29.7866C12.8266 28.8621 12.3999 27.5999 12.3999 25.9999C12.3999 22.5155 14.7466 19.3155 19.4399 16.3999Z" fill="white"/>
</svg>
