<?xml version="1.0" encoding="utf-8"?>
<!-- Generator: Adobe Illustrator 23.0.5, SVG Export Plug-In . SVG Version: 6.00 Build 0)  -->
<svg version="1.1" id="Layer_1" xmlns="http://www.w3.org/2000/svg" xmlns:xlink="http://www.w3.org/1999/xlink" x="0px" y="0px"
	 viewBox="0 0 770.7 62" style="enable-background:new 0 0 770.7 62;" xml:space="preserve">
<title>listAsset 3</title>
<g>
	<g id="Layer_1-2">
		<path d="M20.7,60.4v-27L0,1.3h18.5l8,15.2c0,0.1,0.1,0.2,0.2,0.4c0.8,1.4,1.4,3,1.7,4.6c0.4-1.5,0.9-3,1.7-4.4l0.3-0.6l7.8-15.2
			h18.5L36.2,33.5v27L20.7,60.4z"/>
		<path d="M118.8,31c0.1,8.3-3.2,16.2-9.2,21.9c-3,2.9-6.5,5.2-10.3,6.7c-7.8,3.1-16.4,3.1-24.2,0c-3.8-1.5-7.3-3.8-10.2-6.7
			c-3-2.8-5.3-6.2-6.9-10c-1.6-3.8-2.4-7.8-2.4-11.9c-0.1-8.3,3.3-16.2,9.3-21.9c2.9-2.9,6.4-5.2,10.2-6.7c7.8-3.1,16.5-3.1,24.3,0
			c3.8,1.5,7.3,3.8,10.3,6.7C115.5,14.8,118.8,22.7,118.8,31z M87.2,48.4c4.2,0.1,8.3-1.7,11.1-4.9c3-3.4,4.5-7.9,4.4-12.4
			c0.1-4.5-1.4-9-4.4-12.4c-5.4-6.1-14.8-6.6-20.9-1.2c-0.4,0.4-0.8,0.8-1.2,1.2c-3,3.4-4.5,7.9-4.4,12.4c0,5.1,1.4,9.2,4.3,12.5
			C78.8,46.7,82.9,48.5,87.2,48.4z"/>
		<path d="M128.5,1.3h16.1v28.7c-0.1,3,0.1,6.1,0.3,9.1c0.2,1.6,0.5,3.1,1.1,4.6c0.6,1.5,1.8,2.7,3.2,3.5c3.6,1.6,7.6,1.6,11.2,0
			c1.5-0.7,2.6-2,3.3-3.5c0.6-1.5,0.9-3,1.1-4.6c0.3-3,0.4-6.1,0.3-9.1V1.3h16v31.2c0,6.5-0.4,11.3-1.2,14.3c-0.7,2.9-2.1,5.6-4,7.9
			c-2.2,2.5-5.1,4.4-8.3,5.4c-4.1,1.3-8.5,1.9-12.8,1.8c-4.4,0.1-8.7-0.5-12.9-1.8c-3.2-1-6.1-2.9-8.3-5.4c-1.9-2.3-3.2-5-3.9-7.9
			c-0.8-3.1-1.2-7.9-1.2-14.3V1.3z"/>
		<path d="M193.3,60.4V1.3h16.8c6.6,0,11.2,0.3,13.8,0.9c2.4,0.5,4.7,1.6,6.7,3c2.1,1.6,3.8,3.7,4.9,6.2c1.2,2.6,1.7,5.4,1.7,8.3
			c0,4.6-1.1,8.3-3.4,11.2c-2.5,3-6,5-9.8,5.7l16.1,23.8H222l-13.6-23.1v23.1H193.3z M208.4,29.3h3c3.5,0,6-0.6,7.6-1.8
			c1.6-1.2,2.4-3,2.4-5.6c0-3-0.7-5.1-2.2-6.3s-4-1.9-7.5-1.9h-3.2V29.3z"/>
		<path d="M246.3,53.8c-0.1-2.2,0.8-4.3,2.3-5.8c1.5-1.5,3.6-2.4,5.8-2.3c2.2-0.1,4.3,0.8,5.8,2.3c1.5,1.5,2.4,3.6,2.3,5.8
			c0,2.2-0.8,4.3-2.4,5.8c-1.5,1.6-3.6,2.5-5.8,2.4c-2.2,0-4.2-0.8-5.7-2.4C247.1,58.1,246.3,56,246.3,53.8z"/>
		<path d="M333.3,60.4V1.3h12.3c9.2,0,15.7,0.4,19.5,1.3c3.6,0.8,7,2.2,10,4.3c3.7,2.5,6.6,6,8.5,10c2,4.4,3,9.2,2.9,14
			c0.1,4.8-0.9,9.6-2.9,13.9c-1.9,4-4.9,7.5-8.5,10c-3,2-6.3,3.5-9.8,4.3c-3.7,0.8-9.3,1.3-17,1.3L333.3,60.4L333.3,60.4z
			 M349.3,47.2h2.7c6.3,0,10.9-1.3,13.8-3.9c2.9-2.6,4.4-6.7,4.4-12.4c0-5.7-1.5-9.8-4.4-12.4c-2.9-2.6-7.5-4-13.8-4h-2.7
			L349.3,47.2z"/>
		<path d="M454,60.4V1.3h36.2v13h-20.5v10.2H489v12.7h-19.3v10h20.5v13.2H454z"/>
		<path d="M500.8,60.4V1.3h15.5l22.3,30.4c0.8,1.2,1.5,2.4,2.1,3.7c1,1.9,2.1,4.1,3.3,6.7c-0.3-2.5-0.6-4.6-0.7-6.5
			s-0.2-3.6-0.2-5.1V1.3h15.5v59.1h-15.5l-22.3-30.5c-0.8-1.2-1.5-2.4-2.2-3.7c-1-1.9-2-4.1-3.2-6.6c0.3,2.5,0.6,4.7,0.7,6.6
			s0.2,3.6,0.2,5.1v29.2H500.8z"/>
		<path d="M579.8,60.4V15.3h-13.2v-14h42.6v14h-13.2v45.1H579.8z"/>
		<path d="M616.7,1.3h16.1v28.7c0,3,0.1,6.1,0.3,9.1c0.2,1.6,0.5,3.1,1.1,4.6c0.6,1.5,1.8,2.7,3.2,3.5c1.8,0.8,3.7,1.3,5.6,1.2
			c1.9,0.1,3.8-0.3,5.6-1.2c1.5-0.7,2.6-2,3.2-3.5c0.6-1.5,0.9-3,1.1-4.6c0.3-3,0.4-6.1,0.3-9.1V1.3h16v31.2
			c0,6.5-0.4,11.3-1.2,14.3c-0.7,2.9-2.1,5.6-4,7.9c-2.2,2.5-5.1,4.4-8.3,5.4c-8.4,2.4-17.3,2.4-25.7,0c-3.2-1-6.1-2.9-8.3-5.4
			c-1.9-2.3-3.2-5-3.9-7.9c-0.8-3.1-1.2-7.9-1.2-14.3L616.7,1.3L616.7,1.3z"/>
		<path d="M681.5,60.4V1.3h16.8c6.6,0,11.2,0.3,13.8,0.9c2.4,0.5,4.7,1.6,6.7,3c2.1,1.6,3.8,3.7,4.9,6.2c1.2,2.6,1.7,5.4,1.7,8.3
			c0,4.6-1.1,8.3-3.4,11.2c-2.5,3-6,5-9.8,5.7l16.1,23.8h-18.2l-13.6-23.1v23.1H681.5z M696.6,29.3h3c3.5,0,6-0.6,7.6-1.8
			s2.4-3,2.4-5.6c0-3-0.7-5.1-2.2-6.3c-1.5-1.3-4-1.9-7.5-1.9h-3.2L696.6,29.3z"/>
		<path d="M734.5,60.4V1.3h36.2v13h-20.5v10.2h19.3v12.7h-19.3v10h20.5v13.2H734.5z"/>
		<polygon points="289.1,60.4 297.2,32.8 305.3,60.4 		"/>
		<path d="M307.3,1.3h-20.2l-20.4,59.1h16l3.1-10.6h0.1l3.4-11.5l0,0l0.6-1.8l7-24c0.1-0.5,0.3-1.1,0.4-1.6V11l0-0.1l11.3,39l0,0
			l0.3,1l2.8,9.5h15.9L307.3,1.3z"/>
		<polygon points="427.1,0.6 418.2,30.8 409.4,0.6 		"/>
		<path d="M408.2,60.4h20.2l20.4-59.8h-16l-3.1,10.7h-0.1L426.2,23l0,0l-0.6,1.9l-7,24.3c-0.1,0.5-0.3,1.1-0.4,1.7v-0.2v0.2
			l-11.4-39.5l0,0l-0.3-1.1l-2.8-9.6h-15.9L408.2,60.4z"/>
	</g>
</g>
</svg>
