<svg xmlns="http://www.w3.org/2000/svg" viewBox="0 0 770.68 62"><defs><style>.cls-1{fill:#fff;}</style></defs><title>listAsset 3</title><g id="Layer_2" data-name="Layer 2"><g id="Layer_1-2" data-name="Layer 1"><path class="cls-1" d="M20.67,60.43v-27L0,1.33H18.49l8,15.22c0,.08.13.23.24.44a18.65,18.65,0,0,1,1.74,4.56,15.58,15.58,0,0,1,1.73-4.39l.33-.61L38.35,1.33H56.87L36.21,33.46v27Z"/><path class="cls-1" d="M118.75,31a30,30,0,0,1-9.16,21.92,32.26,32.26,0,0,1-10.33,6.72,32.2,32.2,0,0,1-24.2,0,30.92,30.92,0,0,1-10.19-6.72,30,30,0,0,1-6.93-10A30.46,30.46,0,0,1,55.58,31,29.78,29.78,0,0,1,64.87,9.08,31.07,31.07,0,0,1,75.06,2.36a32.35,32.35,0,0,1,24.26,0,31.42,31.42,0,0,1,10.27,6.72A30.25,30.25,0,0,1,118.75,31ZM87.19,48.36a14.18,14.18,0,0,0,11.08-4.93A18,18,0,0,0,102.65,31a17.9,17.9,0,0,0-4.44-12.39,14.79,14.79,0,0,0-22.1,0A18,18,0,0,0,71.73,31q0,7.59,4.32,12.47A14.18,14.18,0,0,0,87.19,48.36Z"/><path class="cls-1" d="M128.48,1.33h16.07V30.07a87.52,87.52,0,0,0,.32,9.1A17.43,17.43,0,0,0,146,43.8a6.69,6.69,0,0,0,3.23,3.45,13.77,13.77,0,0,0,11.2,0,6.93,6.93,0,0,0,3.25-3.45,17.83,17.83,0,0,0,1.09-4.63,90.49,90.49,0,0,0,.32-9.1V1.33h16V32.57q0,9.74-1.18,14.35a19.18,19.18,0,0,1-4,7.9,18.21,18.21,0,0,1-8.32,5.38A40,40,0,0,1,154.8,62a40.07,40.07,0,0,1-12.86-1.8,18.46,18.46,0,0,1-8.33-5.38,19.67,19.67,0,0,1-3.94-7.9q-1.18-4.62-1.19-14.35V1.33Z"/><path class="cls-1" d="M193.31,60.43V1.33h16.83q9.88,0,13.78.91a17.56,17.56,0,0,1,6.72,3.05,15.94,15.94,0,0,1,4.91,6.17,19.76,19.76,0,0,1,1.71,8.28q0,6.86-3.37,11.16a16.45,16.45,0,0,1-9.83,5.71l16.11,23.82H222L208.4,37.3V60.43ZM208.4,29.26h3q5.21,0,7.61-1.77c1.6-1.19,2.4-3,2.4-5.57q0-4.44-2.24-6.32t-7.53-1.88H208.4Z"/><path class="cls-1" d="M246.34,53.81A7.89,7.89,0,0,1,248.67,48a7.76,7.76,0,0,1,5.75-2.34A7.94,7.94,0,0,1,260.27,48a7.86,7.86,0,0,1,2.34,5.78,8,8,0,0,1-2.36,5.81A7.87,7.87,0,0,1,254.42,62a7.71,7.71,0,0,1-5.73-2.38A8,8,0,0,1,246.34,53.81Z"/><path class="cls-1" d="M333.33,60.43V1.33h12.31q13.77,0,19.48,1.29a28.24,28.24,0,0,1,10,4.32,25.35,25.35,0,0,1,8.52,10,32.25,32.25,0,0,1,2.9,14,32.25,32.25,0,0,1-2.9,13.95,25.35,25.35,0,0,1-8.52,10,27.79,27.79,0,0,1-9.77,4.25q-5.49,1.27-17,1.28h-15Zm15.94-13.24H352q9.48,0,13.84-3.9t4.36-12.37q0-8.48-4.36-12.43t-13.84-4h-2.71Z"/><path class="cls-1" d="M454,60.43V1.33h36.21v13H469.68V24.54H489V37.22H469.68v10h20.51V60.43Z"/><path class="cls-1" d="M500.84,60.43V1.33h15.54l22.32,30.4a39.12,39.12,0,0,1,2.12,3.73q1.48,2.81,3.25,6.68c-.32-2.45-.56-4.63-.7-6.54s-.23-3.6-.23-5.08V1.33H558.6v59.1H543.14L520.82,29.91a36.8,36.8,0,0,1-2.16-3.73q-1.47-2.8-3.21-6.6c.33,2.47.56,4.67.71,6.58s.22,3.6.22,5.08V60.43Z"/><path class="cls-1" d="M579.8,60.43V15.3H566.56v-14h42.58v14H595.9V60.43Z"/><path class="cls-1" d="M616.65,1.33h16.06V30.07a86.78,86.78,0,0,0,.33,9.1,17.43,17.43,0,0,0,1.09,4.63,6.71,6.71,0,0,0,3.22,3.45A12.19,12.19,0,0,0,643,48.44a12,12,0,0,0,5.59-1.19,6.87,6.87,0,0,0,3.24-3.45,17.4,17.4,0,0,0,1.1-4.63,90.49,90.49,0,0,0,.32-9.1V1.33h16V32.57q0,9.74-1.17,14.35a19.31,19.31,0,0,1-4,7.9,18.21,18.21,0,0,1-8.32,5.38,46.73,46.73,0,0,1-25.69,0,18.55,18.55,0,0,1-8.34-5.38,19.65,19.65,0,0,1-3.93-7.9q-1.19-4.62-1.19-14.35V1.33Z"/><path class="cls-1" d="M681.47,60.43V1.33h16.84q9.88,0,13.78.91a17.56,17.56,0,0,1,6.72,3.05,15.94,15.94,0,0,1,4.91,6.17,19.76,19.76,0,0,1,1.71,8.28q0,6.86-3.37,11.16a16.45,16.45,0,0,1-9.83,5.71l16.11,23.82H710.13L696.57,37.3V60.43Zm15.1-31.17h3c3.47,0,6-.59,7.61-1.77s2.4-3,2.4-5.57q0-4.44-2.24-6.32t-7.53-1.88h-3.23Z"/><path class="cls-1" d="M734.47,60.43V1.33h36.21v13H750.17V24.54h19.34V37.22H750.17v10h20.51V60.43Z"/><polygon class="cls-1" points="289.1 60.43 297.22 32.77 305.26 60.43 289.1 60.43"/><path class="cls-1" d="M307.25,1.33H287.07l-20.38,59.1h16l3.07-10.58h.12l3.37-11.5h0l.56-1.83,7-24c.13-.54.27-1.09.4-1.65l0,.15.05-.15,11.33,39h0l.29,1,2.78,9.54h15.94Z"/><polygon class="cls-1" points="427.08 0.62 418.22 30.81 409.44 0.62 427.08 0.62"/><path class="cls-1" d="M408.19,60.43h20.18L448.75.62h-16l-3.07,10.7h-.12L426.17,23h0l-.56,1.86-7,24.25c-.13.55-.27,1.1-.4,1.67l0-.15,0,.15L406.78,11.32h0l-.29-1.05L403.71.62H387.76Z"/></g></g></svg>