<svg xmlns="http://www.w3.org/2000/svg" viewBox="0 0 362.06 201.43"><defs><style>.cls-1{fill:#fff;}</style></defs><title>listAsset 5</title><g id="Layer_2" data-name="Layer 2"><g id="Layer_1-2" data-name="Layer 1"><polygon class="cls-1" points="75.48 201.43 102.82 108.27 129.92 201.43 75.48 201.43"/><path class="cls-1" d="M136.62,2.41h-68L0,201.43H54L64.3,165.81h.39l11.37-38.74H76l1.88-6.17,23.68-80.71,1.36-5.56.12.5.15-.5,38.17,131.18h0l1,3.5,9.34,32.12h53.7Z"/><polygon class="cls-1" points="289.07 0 259.23 101.69 229.65 0 289.07 0"/><path class="cls-1" d="M225.44,201.43h68L362.06,0h-54L297.76,36.05h-.39L286,75.26h.07l-1.88,6.24-23.68,81.69c-.45,1.85-.9,3.71-1.36,5.63,0-.18-.08-.34-.12-.51l-.15.51L220.71,36.05h0l-1-3.55L210.35,0h-53.7Z"/></g></g></svg>